<?xml version="1.0" encoding="UTF-8" standalone="no"?>
<!DOCTYPE svg PUBLIC "-//W3C//DTD SVG 1.1//EN" "http://www.w3.org/Graphics/SVG/1.1/DTD/svg11.dtd">
<!-- Created with Vectornator (http://vectornator.io/) -->
<svg height="100%" stroke-miterlimit="10" style="fill-rule:nonzero;clip-rule:evenodd;stroke-linecap:round;stroke-linejoin:round;" version="1.1" viewBox="0 0 700 700" width="100%" xml:space="preserve" xmlns="http://www.w3.org/2000/svg" xmlns:xlink="http://www.w3.org/1999/xlink">
<defs/>
<g id="Untitled">
<path d="M597.473 21.3715L370.333 248.512C359.103 259.742 340.897 259.742 329.667 248.512L102.527 21.3715C91.2975 10.1421 73.0911 10.1421 61.8617 21.3715L21.3715 61.8617C10.1421 73.0911 10.1421 91.2975 21.3715 102.527L248.512 329.667C259.742 340.897 259.742 359.103 248.512 370.333L21.3715 597.473C10.1421 608.703 10.1421 626.909 21.3716 638.139L61.8616 678.628C73.091 689.858 91.2975 689.858 102.527 678.628L329.667 451.488C340.897 440.258 359.103 440.258 370.333 451.488L597.473 678.628C608.703 689.858 626.909 689.858 638.139 678.628L678.628 638.139C689.858 626.909 689.858 608.703 678.628 597.473L451.488 370.333C440.258 359.103 440.258 340.897 451.488 329.667L678.628 102.527C689.858 91.2975 689.858 73.091 678.628 61.8616L638.139 21.3716C626.909 10.1421 608.703 10.1421 597.473 21.3715Z" fill="#ffffff" fill-rule="nonzero" opacity="1" stroke="none"/>
</g>
</svg>
